<?xml version="1.0" encoding="utf-8"?>
<!-- Generator: Adobe Illustrator 15.0.0, SVG Export Plug-In . SVG Version: 6.00 Build 0)  -->
<!DOCTYPE svg PUBLIC "-//W3C//DTD SVG 1.1//EN" "http://www.w3.org/Graphics/SVG/1.1/DTD/svg11.dtd">
<svg version="1.1" id="Layer_1" xmlns="http://www.w3.org/2000/svg" xmlns:xlink="http://www.w3.org/1999/xlink" x="0px" y="0px"
	 width="418.197px" height="64.357px" viewBox="0 0 418.197 64.357" enable-background="new 0 0 418.197 64.357"
	 xml:space="preserve">
<g>
	<path fill="#010202" d="M32.057,64.357c-8.738,0-16.788-3.133-22.666-8.823C3.335,49.672,0,41.421,0,32.301
		c0-9.09,3.369-17.381,9.486-23.35C15.402,3.179,23.36,0,31.895,0c8.34,0,15.28,2.404,20.624,7.144
		c5.592,4.958,7.592,10.868,8.287,13.951l0.425,1.885l-16.153,5.096l-0.501-2.233c-0.479-2.135-2.812-9.103-12.682-9.103
		c-6.907,0-14.342,4.87-14.342,15.562c0,7.45,4.982,14.992,14.504,14.992c9.804,0,12.516-7.104,13.113-9.28l0.561-2.047
		l16.263,4.631l-0.459,1.952C59.173,52.609,50.037,64.357,32.057,64.357z M31.895,4.205c-15.787,0-27.691,12.079-27.691,28.096
		c0,16.139,11.715,27.854,27.854,27.854c9.23,0,20.965-4.403,24.854-16.633l-8.378-2.387c-2.21,5.318-7.456,10.361-16.476,10.361
		c-4.938,0-9.549-1.799-12.986-5.064c-3.742-3.559-5.721-8.443-5.721-14.131c0-7.764,3.262-12.4,5.998-14.925
		c3.335-3.076,7.908-4.841,12.547-4.841c9.073,0,14.123,4.942,16.125,10.203l8.161-2.574C54.529,15.209,48.937,4.205,31.895,4.205z"
		/>
	<path fill="#010202" d="M97.745,64.357c-8.644,0-16.661-3.111-22.574-8.763c-6.168-5.892-9.563-14.193-9.563-23.374
		c0-9.217,3.396-17.544,9.562-23.447C81.08,3.116,89.097,0,97.745,0c8.612,0,16.606,3.116,22.507,8.776
		c6.158,5.905,9.549,14.231,9.549,23.444c0,9.176-3.392,17.477-9.55,23.373C114.346,61.245,106.354,64.357,97.745,64.357z
		 M97.745,4.205c-7.56,0-14.545,2.701-19.669,7.606c-5.407,5.176-8.265,12.233-8.265,20.41c0,8.139,2.857,15.17,8.263,20.334
		c5.13,4.9,12.114,7.6,19.671,7.6c7.521,0,14.479-2.699,19.599-7.597c5.4-5.169,8.254-12.202,8.254-20.337
		c0-8.174-2.854-15.23-8.256-20.41C112.229,6.906,105.269,4.205,97.745,4.205z M97.745,51.659c-9.05,0-18.788-6.108-18.788-19.521
		c0-13.469,9.738-19.604,18.788-19.604c4.807,0,9.32,1.697,12.708,4.781c2.736,2.488,6,7.08,6,14.822
		C116.453,45.551,106.756,51.659,97.745,51.659z M97.745,16.739c-7.26,0-14.585,4.761-14.585,15.399
		c0,10.58,7.325,15.317,14.585,15.317c7.219,0,14.503-4.737,14.503-15.317c0-4.911-1.599-8.962-4.623-11.713
		C105.05,18.083,101.449,16.739,97.745,16.739z"/>
	<path fill="#010202" d="M154.805,64.357c-6.179,0-11.5-2.013-15.389-5.818c-3.927-3.848-6.004-9.146-6.004-15.33v-5.595
		l16.413-2.846v7.788c0,4.862,3.427,5.387,4.899,5.387c2.914,0,4.653-1.982,4.653-5.305V1.221h17.064v41.743
		c0,5.728-2.154,11.075-6.067,15.056C166.361,62.105,160.831,64.357,154.805,64.357z M137.615,41.151v2.058
		c0,5.027,1.641,9.288,4.741,12.325c3.088,3.022,7.392,4.62,12.448,4.62c9.939,0,17.436-7.391,17.436-17.19V5.425h-8.658v37.214
		c0,5.6-3.643,9.509-8.857,9.509c-4.531,0-9.102-2.966-9.102-9.591v-2.793L137.615,41.151z"/>
	<path fill="#010202" d="M216.343,64.357c-8.644,0-16.659-3.111-22.574-8.763c-6.168-5.892-9.563-14.193-9.563-23.374
		c0-9.217,3.396-17.544,9.561-23.447C199.678,3.116,207.694,0,216.343,0c8.612,0,16.606,3.116,22.507,8.776
		c6.158,5.905,9.549,14.231,9.549,23.444c0,9.176-3.391,17.477-9.551,23.373C232.943,61.245,224.95,64.357,216.343,64.357z
		 M216.343,4.205c-7.56,0-14.544,2.701-19.669,7.606c-5.407,5.176-8.266,12.233-8.266,20.41c0,8.139,2.858,15.17,8.264,20.334
		c5.128,4.9,12.115,7.6,19.671,7.6c7.521,0,14.479-2.699,19.599-7.597c5.4-5.169,8.254-12.202,8.254-20.337
		c0-8.174-2.854-15.23-8.256-20.41C230.826,6.906,223.866,4.205,216.343,4.205z M216.343,51.659c-9.05,0-18.788-6.108-18.788-19.521
		c0-13.469,9.738-19.604,18.788-19.604c4.806,0,9.32,1.697,12.708,4.781c2.736,2.488,6,7.08,6,14.822
		C235.051,45.551,225.354,51.659,216.343,51.659z M216.343,16.739c-7.26,0-14.585,4.761-14.585,15.399
		c0,10.58,7.325,15.317,14.585,15.317c7.219,0,14.503-4.737,14.503-15.317c0-4.911-1.599-8.962-4.624-11.713
		C223.647,18.083,220.048,16.739,216.343,16.739z"/>
	<path fill="#010202" d="M310.994,63.139h-16.858l-20.504-32.723v32.723h-16.983V1.221h18.904l18.377,29.777V1.221h17.064V63.139z
		 M296.463,58.933h10.328V5.425h-8.657v40.389L273.207,5.425h-12.354v53.508h8.576V15.791L296.463,58.933z"/>
	<path fill="#010202" d="M363.335,63.139h-40.834V1.221h40.752v16.334h-23.688v6.783h21.489v15.518h-21.489v6.867h23.77V63.139z
		 M326.705,58.933h32.426v-8.005h-23.768V35.654h21.488v-7.111h-21.488V13.35h23.686V5.425h-32.344V58.933z"/>
	<path fill="#010202" d="M394.768,64.357c-7.706,0-14.251-2.338-18.925-6.762c-3.798-3.595-6.266-8.556-6.771-13.607l-0.182-1.823
		l15.351-3.706c-8.165-2.997-13.063-9.523-13.063-17.798C371.178,9.076,381.183,0,393.955,0c7.029,0,12.715,1.918,16.896,5.703
		c3.231,2.923,5.452,6.977,6.254,11.409l0.34,1.879l-15.688,4.421l-0.357-2.354c-0.193-1.281-1.31-5.457-7.527-5.457
		c-3.626,0-5.794,2.075-5.794,4.084c0,0.818,0,2.737,3.977,3.467l7.744,1.468c11.345,2.102,18.397,9.537,18.397,19.402
		C418.197,53.88,409.986,64.357,394.768,64.357z M373.547,45.366c1.373,6.191,6.99,14.788,21.221,14.788
		c5.854,0,10.826-1.782,14.377-5.151c3.081-2.926,4.85-6.929,4.85-10.981c0-7.826-5.596-13.533-14.969-15.27l-7.741-1.468
		c-6.444-1.183-7.408-5.27-7.408-7.6c0-5.188,5.084-8.288,9.997-8.288c4.57,0,7.288,1.755,8.761,3.23
		c1.155,1.153,1.864,2.412,2.305,3.521l7.599-2.143c-3.148-10.914-14.9-11.801-18.582-11.801c-10.415,0-18.573,7.228-18.573,16.457
		c0,7.628,5.234,13.187,14.003,14.866l7.884,1.463c4.88,0.934,7.905,3.939,7.905,7.846c0,4.86-4.117,8.126-10.241,8.126
		c-4.255,0-7.686-1.194-10.199-3.55c-1.671-1.567-2.843-3.584-3.449-5.915L373.547,45.366z M384.868,38.681l0.191,2.056
		c0.471,5.099,4.069,8.021,9.873,8.021c2.919,0,6.038-1.029,6.038-3.922c0-2.578-3.135-3.457-4.48-3.715l-7.885-1.463
		C387.298,39.408,386.052,39.08,384.868,38.681z"/>
</g>
</svg>
